<?xml version="1.0" standalone="no"?>
<!DOCTYPE svg PUBLIC "-//W3C//DTD SVG 20010904//EN"
 "http://www.w3.org/TR/2001/REC-SVG-20010904/DTD/svg10.dtd">
<svg version="1.0" xmlns="http://www.w3.org/2000/svg"
 width="704.000000pt" height="704.000000pt" viewBox="0 0 704.000000 704.000000"
 preserveAspectRatio="xMidYMid meet">
<metadata>
Created by potrace 1.14, written by Peter Selinger 2001-2017
</metadata>
<g transform="translate(0.000000,704.000000) scale(0.100000,-0.100000)"
fill="#000000" stroke="none">
<path d="M1382 6584 c-52 -14 -102 -36 -130 -58 -36 -28 -112 -111 -112 -122
0 -7 -3 -14 -7 -16 -5 -1 -19 -30 -32 -63 -13 -33 -32 -78 -42 -100 -9 -22
-56 -134 -104 -250 -78 -187 -181 -436 -205 -490 -4 -11 -15 -38 -25 -60 -9
-22 -20 -49 -25 -60 -28 -65 -422 -1012 -424 -1020 -1 -5 -12 -31 -24 -57 -12
-26 -22 -49 -22 -53 0 -3 -9 -24 -20 -48 -41 -88 -103 -244 -117 -292 -41
-146 -3 -281 112 -400 33 -35 72 -84 85 -110 22 -42 104 -125 339 -341 35 -33
88 -81 116 -109 29 -27 90 -84 136 -126 46 -43 100 -92 120 -110 19 -19 87
-81 149 -139 62 -58 135 -125 161 -150 26 -25 84 -79 129 -120 45 -41 101 -93
124 -115 24 -22 86 -80 140 -130 54 -49 117 -108 140 -130 38 -35 186 -173
295 -273 20 -19 68 -63 106 -99 39 -36 97 -91 131 -122 33 -31 111 -103 173
-161 62 -58 130 -120 150 -139 30 -28 134 -124 276 -256 17 -16 83 -78 146
-136 63 -58 137 -127 164 -153 113 -108 207 -147 335 -142 42 2 86 9 98 15 12
6 22 9 22 7 0 -3 24 9 54 27 48 28 134 103 294 255 27 26 92 87 145 135 52 48
111 102 130 120 19 18 80 75 137 127 57 52 120 111 140 130 56 52 248 231 284
264 17 15 58 54 92 85 84 78 316 293 492 457 29 27 72 67 96 89 23 22 88 83
145 135 57 52 122 113 146 135 63 59 246 229 280 261 66 60 229 212 274 254
26 25 92 86 146 135 252 232 295 276 324 339 42 89 55 171 38 246 -3 14 -8 34
-10 45 -3 11 -24 65 -47 120 -23 55 -51 123 -62 150 -11 28 -28 68 -38 90 -10
22 -34 78 -53 125 -79 192 -139 337 -152 365 -7 17 -32 77 -55 135 -23 58 -51
125 -63 150 -11 25 -20 47 -20 50 0 3 -15 38 -34 78 -18 40 -33 80 -33 88 0 7
-4 14 -10 14 -5 0 -10 8 -10 18 0 10 -8 36 -19 58 -10 21 -91 215 -180 429
-89 215 -168 404 -176 420 -7 17 -28 66 -45 110 -18 44 -47 100 -65 125 -17
25 -44 68 -60 95 -63 108 -235 252 -325 270 -119 25 -265 -4 -345 -68 -5 -5
-77 -53 -160 -107 -82 -55 -154 -103 -160 -108 -30 -24 -107 -72 -116 -72 -5
0 -12 -7 -15 -15 -4 -8 -12 -15 -18 -15 -7 0 -22 -9 -34 -20 -12 -11 -25 -20
-29 -20 -5 0 -20 -9 -33 -19 -32 -25 -842 -565 -855 -570 -5 -2 -12 -7 -15
-11 -3 -3 -32 -23 -65 -43 -148 -89 -306 -82 -459 19 -32 21 -66 44 -75 49
-36 23 -197 130 -206 138 -5 4 -39 27 -75 50 -36 22 -67 44 -70 47 -3 3 -30
21 -60 40 -30 19 -57 37 -60 41 -3 3 -9 8 -15 10 -5 2 -110 72 -233 154 -123
83 -231 155 -240 160 -30 18 -197 129 -207 138 -49 41 -305 199 -344 212 -67
22 -165 26 -229 9z"/>
</g>
</svg>
